<svg xmlns="http://www.w3.org/2000/svg" viewBox="0 0 900 520" font-family="Inter, system-ui, sans-serif">
  <defs>
    <linearGradient id="bgGrad" x1="0" y1="0" x2="900" y2="520" gradientUnits="userSpaceOnUse">
      <stop offset="0%" stop-color="#0F172A"/>
      <stop offset="100%" stop-color="#1E293B"/>
    </linearGradient>
    <filter id="shadow" x="-4%" y="-4%" width="108%" height="112%">
      <feDropShadow dx="0" dy="2" stdDeviation="3" flood-color="#000" flood-opacity="0.3"/>
    </filter>
    <marker id="arr" viewBox="0 0 10 10" refX="9" refY="5" markerWidth="7" markerHeight="7" orient="auto" fill="#34D399">
      <path d="M 0 0 L 10 5 L 0 10 z"/>
    </marker>
  </defs>

  <rect width="900" height="520" fill="url(#bgGrad)" rx="12"/>
  <text x="450" y="36" text-anchor="middle" fill="#F8FAFC" font-size="18" font-weight="700">CAM Engine — Manufacturing Pipeline</text>
  <line x1="230" y1="46" x2="670" y2="46" stroke="#34D399" stroke-width="1.5" opacity="0.5"/>

  <!-- CNC Physics Models -->
  <rect x="30" y="65" width="260" height="210" rx="10" fill="#1E293B" stroke="#34D399" stroke-width="1.5" filter="url(#shadow)"/>
  <rect x="30" y="65" width="260" height="36" rx="10" fill="#059669"/>
  <rect x="30" y="93" width="260" height="8" fill="#059669"/>
  <text x="160" y="88" text-anchor="middle" fill="white" font-size="12" font-weight="700">CNC Physics Models</text>

  <rect x="44" y="112" width="110" height="36" rx="5" fill="#064E3B" opacity="0.5"/>
  <text x="99" y="128" text-anchor="middle" fill="#6EE7B7" font-size="8" font-weight="600">Kienzle</text>
  <text x="99" y="142" text-anchor="middle" fill="#94A3B8" font-size="7">Cutting force</text>

  <rect x="164" y="112" width="110" height="36" rx="5" fill="#064E3B" opacity="0.5"/>
  <text x="219" y="128" text-anchor="middle" fill="#6EE7B7" font-size="8" font-weight="600">Taylor</text>
  <text x="219" y="142" text-anchor="middle" fill="#94A3B8" font-size="7">Tool life</text>

  <rect x="44" y="156" width="110" height="36" rx="5" fill="#064E3B" opacity="0.5"/>
  <text x="99" y="172" text-anchor="middle" fill="#6EE7B7" font-size="8" font-weight="600">Loewen-Shaw</text>
  <text x="99" y="186" text-anchor="middle" fill="#94A3B8" font-size="7">Temperature</text>

  <rect x="164" y="156" width="110" height="36" rx="5" fill="#064E3B" opacity="0.5"/>
  <text x="219" y="172" text-anchor="middle" fill="#6EE7B7" font-size="8" font-weight="600">Altintas</text>
  <text x="219" y="186" text-anchor="middle" fill="#94A3B8" font-size="7">Chatter stability</text>

  <rect x="44" y="200" width="110" height="36" rx="5" fill="#064E3B" opacity="0.5"/>
  <text x="99" y="216" text-anchor="middle" fill="#6EE7B7" font-size="8" font-weight="600">MRR</text>
  <text x="99" y="230" text-anchor="middle" fill="#94A3B8" font-size="7">Material removal</text>

  <rect x="164" y="200" width="110" height="36" rx="5" fill="#064E3B" opacity="0.5"/>
  <text x="219" y="216" text-anchor="middle" fill="#6EE7B7" font-size="8" font-weight="600">Surface Finish</text>
  <text x="219" y="230" text-anchor="middle" fill="#94A3B8" font-size="7">Ra prediction</text>

  <text x="160" y="264" text-anchor="middle" fill="#064E3B" font-size="7">6 CNC materials with physics data</text>

  <!-- Sheet Metal -->
  <rect x="310" y="65" width="260" height="210" rx="10" fill="#1E293B" stroke="#FBBF24" stroke-width="1.5" filter="url(#shadow)"/>
  <rect x="310" y="65" width="260" height="36" rx="10" fill="#B45309"/>
  <rect x="310" y="93" width="260" height="8" fill="#B45309"/>
  <text x="440" y="88" text-anchor="middle" fill="white" font-size="12" font-weight="700">Sheet Metal Operations</text>

  <rect x="324" y="112" width="110" height="42" rx="5" fill="#78350F" opacity="0.5"/>
  <text x="379" y="130" text-anchor="middle" fill="#FCD34D" font-size="8" font-weight="600">🔥 Laser</text>
  <text x="379" y="146" text-anchor="middle" fill="#94A3B8" font-size="7">Kerf • speed • gas</text>

  <rect x="444" y="112" width="110" height="42" rx="5" fill="#78350F" opacity="0.5"/>
  <text x="499" y="130" text-anchor="middle" fill="#FCD34D" font-size="8" font-weight="600">⚡ Plasma</text>
  <text x="499" y="146" text-anchor="middle" fill="#94A3B8" font-size="7">Pierce • amperage</text>

  <rect x="324" y="162" width="110" height="42" rx="5" fill="#78350F" opacity="0.5"/>
  <text x="379" y="180" text-anchor="middle" fill="#FCD34D" font-size="8" font-weight="600">💧 Waterjet</text>
  <text x="379" y="196" text-anchor="middle" fill="#94A3B8" font-size="7">Abrasive • pressure</text>

  <rect x="444" y="162" width="110" height="42" rx="5" fill="#78350F" opacity="0.5"/>
  <text x="499" y="180" text-anchor="middle" fill="#FCD34D" font-size="8" font-weight="600">📐 Bending</text>
  <text x="499" y="196" text-anchor="middle" fill="#94A3B8" font-size="7">K-factor • springback</text>

  <rect x="324" y="214" width="230" height="36" rx="5" fill="#451A03" opacity="0.3"/>
  <text x="439" y="232" text-anchor="middle" fill="#FDE68A" font-size="8" font-weight="600">Bending: DIN 6935 • Leu-Zhuang • Approximate</text>
  <text x="439" y="244" text-anchor="middle" fill="#94A3B8" font-size="7">17 sheet materials with full property catalogs</text>

  <!-- Toolpath & Nesting -->
  <rect x="590" y="65" width="280" height="210" rx="10" fill="#1E293B" stroke="#F472B6" stroke-width="1.5" filter="url(#shadow)"/>
  <rect x="590" y="65" width="280" height="36" rx="10" fill="#BE185D"/>
  <rect x="590" y="93" width="280" height="8" fill="#BE185D"/>
  <text x="730" y="88" text-anchor="middle" fill="white" font-size="12" font-weight="700">Toolpath &amp; Nesting</text>

  <rect x="604" y="112" width="125" height="72" rx="5" fill="#831843" opacity="0.4"/>
  <text x="667" y="130" text-anchor="middle" fill="#F9A8D4" font-size="9" font-weight="600">Toolpath Gen</text>
  <text x="667" y="146" text-anchor="middle" fill="#94A3B8" font-size="7">Roughing → Finishing</text>
  <text x="667" y="158" text-anchor="middle" fill="#94A3B8" font-size="7">Adaptive clearing</text>
  <text x="667" y="170" text-anchor="middle" fill="#94A3B8" font-size="7">Contour → Pocket</text>

  <rect x="737" y="112" width="125" height="72" rx="5" fill="#831843" opacity="0.4"/>
  <text x="800" y="130" text-anchor="middle" fill="#F9A8D4" font-size="9" font-weight="600">Nesting Engine</text>
  <text x="800" y="146" text-anchor="middle" fill="#94A3B8" font-size="7">Bottom-left fill</text>
  <text x="800" y="158" text-anchor="middle" fill="#94A3B8" font-size="7">Sheet optimization</text>
  <text x="800" y="170" text-anchor="middle" fill="#94A3B8" font-size="7">Material utilization</text>

  <rect x="604" y="194" width="258" height="60" rx="5" fill="#500724" opacity="0.3"/>
  <text x="733" y="215" text-anchor="middle" fill="#FECDD3" font-size="9" font-weight="700">7 G-code Post-Processors</text>
  <text x="733" y="230" text-anchor="middle" fill="#94A3B8" font-size="7">Fanuc • Haas • Heidenhain • Siemens</text>
  <text x="733" y="242" text-anchor="middle" fill="#94A3B8" font-size="7">Mazak • Grbl • LinuxCNC</text>

  <!-- Pipeline flow (bottom) -->
  <text x="450" y="310" text-anchor="middle" fill="#94A3B8" font-size="11" font-weight="600">Manufacturing Pipeline Flow</text>

  <!-- Pipeline stages -->
  <rect x="40" y="330" width="130" height="60" rx="8" fill="#1E293B" stroke="#60A5FA" stroke-width="1.5"/>
  <text x="105" y="354" text-anchor="middle" fill="#93C5FD" font-size="9" font-weight="700">① Import</text>
  <text x="105" y="370" text-anchor="middle" fill="#94A3B8" font-size="7">STEP/STL/DXF</text>
  <text x="105" y="382" text-anchor="middle" fill="#64748B" font-size="7">Parse → B-Rep</text>

  <line x1="170" y1="360" x2="198" y2="360" stroke="#34D399" stroke-width="1.5" marker-end="url(#arr)"/>

  <rect x="200" y="330" width="130" height="60" rx="8" fill="#1E293B" stroke="#818CF8" stroke-width="1.5"/>
  <text x="265" y="354" text-anchor="middle" fill="#A5B4FC" font-size="9" font-weight="700">② Feature</text>
  <text x="265" y="370" text-anchor="middle" fill="#94A3B8" font-size="7">Recognition</text>
  <text x="265" y="382" text-anchor="middle" fill="#64748B" font-size="7">Holes • Pockets</text>

  <line x1="330" y1="360" x2="358" y2="360" stroke="#34D399" stroke-width="1.5" marker-end="url(#arr)"/>

  <rect x="360" y="330" width="130" height="60" rx="8" fill="#1E293B" stroke="#34D399" stroke-width="1.5"/>
  <text x="425" y="354" text-anchor="middle" fill="#6EE7B7" font-size="9" font-weight="700">③ Toolpath</text>
  <text x="425" y="370" text-anchor="middle" fill="#94A3B8" font-size="7">Generation</text>
  <text x="425" y="382" text-anchor="middle" fill="#64748B" font-size="7">Rough → Finish</text>

  <line x1="490" y1="360" x2="518" y2="360" stroke="#34D399" stroke-width="1.5" marker-end="url(#arr)"/>

  <rect x="520" y="330" width="130" height="60" rx="8" fill="#1E293B" stroke="#FBBF24" stroke-width="1.5"/>
  <text x="585" y="354" text-anchor="middle" fill="#FCD34D" font-size="9" font-weight="700">④ DFM Check</text>
  <text x="585" y="370" text-anchor="middle" fill="#94A3B8" font-size="7">Analyze &amp; Score</text>
  <text x="585" y="382" text-anchor="middle" fill="#64748B" font-size="7">0–100 rating</text>

  <line x1="650" y1="360" x2="678" y2="360" stroke="#34D399" stroke-width="1.5" marker-end="url(#arr)"/>

  <rect x="680" y="330" width="130" height="60" rx="8" fill="#1E293B" stroke="#F472B6" stroke-width="1.5"/>
  <text x="745" y="354" text-anchor="middle" fill="#F9A8D4" font-size="9" font-weight="700">⑤ G-code</text>
  <text x="745" y="370" text-anchor="middle" fill="#94A3B8" font-size="7">Post-process</text>
  <text x="745" y="382" text-anchor="middle" fill="#64748B" font-size="7">Machine-ready</text>

  <!-- Material strip -->
  <rect x="40" y="415" width="770" height="44" rx="8" fill="#1E293B" stroke="#334155" stroke-width="1"/>
  <text x="60" y="434" fill="#64748B" font-size="8" font-weight="600">MATERIALS</text>
  <!-- Sheet badges -->
  <rect x="130" y="422" width="42" height="18" rx="4" fill="#78350F" opacity="0.4"/>
  <text x="151" y="434" text-anchor="middle" fill="#FCD34D" font-size="6">Steel</text>
  <rect x="178" y="422" width="62" height="18" rx="4" fill="#78350F" opacity="0.4"/>
  <text x="209" y="434" text-anchor="middle" fill="#FCD34D" font-size="6">Stainless</text>
  <rect x="246" y="422" width="62" height="18" rx="4" fill="#78350F" opacity="0.4"/>
  <text x="277" y="434" text-anchor="middle" fill="#FCD34D" font-size="6">Aluminum</text>
  <rect x="314" y="422" width="50" height="18" rx="4" fill="#78350F" opacity="0.4"/>
  <text x="339" y="434" text-anchor="middle" fill="#FCD34D" font-size="6">Copper</text>
  <rect x="370" y="422" width="48" height="18" rx="4" fill="#78350F" opacity="0.4"/>
  <text x="394" y="434" text-anchor="middle" fill="#FCD34D" font-size="6">Brass</text>
  <rect x="424" y="422" width="54" height="18" rx="4" fill="#78350F" opacity="0.4"/>
  <text x="451" y="434" text-anchor="middle" fill="#FCD34D" font-size="6">Titanium</text>
  <rect x="484" y="422" width="44" height="18" rx="4" fill="#064E3B" opacity="0.4"/>
  <text x="506" y="434" text-anchor="middle" fill="#6EE7B7" font-size="6">6061</text>
  <rect x="534" y="422" width="44" height="18" rx="4" fill="#064E3B" opacity="0.4"/>
  <text x="556" y="434" text-anchor="middle" fill="#6EE7B7" font-size="6">7075</text>
  <rect x="584" y="422" width="44" height="18" rx="4" fill="#064E3B" opacity="0.4"/>
  <text x="606" y="434" text-anchor="middle" fill="#6EE7B7" font-size="6">304SS</text>
  <rect x="634" y="422" width="44" height="18" rx="4" fill="#064E3B" opacity="0.4"/>
  <text x="656" y="434" text-anchor="middle" fill="#6EE7B7" font-size="6">4140</text>
  <text x="730" y="434" text-anchor="middle" fill="#475569" font-size="7">+ 13 more</text>
  <text x="450" y="454" text-anchor="middle" fill="#475569" font-size="7">17 Sheet Materials • 6 CNC Materials — Full physical properties (density, tensile strength, thermal conductivity, etc.)</text>

  <!-- Bottom bar -->
  <rect x="40" y="474" width="770" height="30" rx="6" fill="#1E293B" stroke="#334155" stroke-width="1"/>
  <text x="450" y="494" text-anchor="middle" fill="#64748B" font-size="8">Physics-based pricing from 10+ estimation models • Real-time cost updates as geometry changes</text>
</svg>
